<svg viewBox="0 0 900 560" xmlns="http://www.w3.org/2000/svg" style="font-family: 'Segoe UI', Arial, sans-serif; background: #ffffff;">

  <!-- Panel główny Grok (lewy) -->
  <rect x="20" y="20" width="240" height="520" rx="8" fill="#f8f9fc" stroke="#e2e8f0" stroke-width="1"/>
  <text x="48" y="48" font-size="15" font-weight="600" fill="#1a1a2e">Profil EEN</text>
  <text x="28" y="50" font-size="18">🚀</text>
  <line x1="20" y1="58" x2="260" y2="58" stroke="#e2e8f0" stroke-width="0.5"/>

  <!-- Kafelek INSTRUKCJE -->
  <rect x="32" y="68" width="216" height="90" rx="8" fill="#EBF4FF" stroke="#378ADD" stroke-width="1.5"/>
  <text x="56" y="92" font-size="13" font-weight="600" fill="#0057A8">Instrukcje</text>
  <text x="36" y="94" font-size="16">⚙️</text>
  <text x="44" y="108" font-size="10" fill="#4A5568">Zasady przygotowywania</text>
  <text x="44" y="120" font-size="10" fill="#4A5568">profili EEN (jak będziemy</text>
  <text x="44" y="132" font-size="10" fill="#4A5568">pracować): Zawsze bazuję n...</text>

  <!-- Kafelek ŹRÓDŁA -->
  <rect x="32" y="170" width="216" height="82" rx="8" fill="#E1F5EE" stroke="#0F6E56" stroke-width="1.5"/>
  <text x="56" y="194" font-size="13" font-weight="600" fill="#085041">Źródła</text>
  <text x="36" y="196" font-size="16">🗃️</text>
  <text x="44" y="210" font-size="10" fill="#4A5568">Własna baza wiedzy</text>
  <text x="44" y="224" font-size="10" fill="#4A5568">dla tego projektu</text>

  <!-- Łączniki -->
  <rect x="32" y="264" width="216" height="30" rx="6" fill="white" stroke="#e2e8f0" stroke-width="0.5"/>
  <text x="48" y="284" font-size="12" fill="#4A5568">Łączniki  0 ›</text>
  <rect x="32" y="300" width="216" height="30" rx="6" fill="white" stroke="#e2e8f0" stroke-width="0.5"/>
  <text x="48" y="320" font-size="12" fill="#4A5568">Pliki osobiste  1 ›</text>

  <!-- Rozmowy -->
  <line x1="32" y1="346" x2="248" y2="346" stroke="#e2e8f0" stroke-width="0.5"/>
  <text x="32" y="364" font-size="13" font-weight="600" fill="#1a1a2e">Rozmowy</text>
  <line x1="32" y1="370" x2="120" y2="370" stroke="#378ADD" stroke-width="2"/>
  <text x="32" y="390" font-size="11" fill="#4A5568">GitHub Table: HTML ...  21 maj</text>
  <text x="32" y="408" font-size="11" fill="#4A5568">EOI Support Chat Se...  19 maj</text>
  <text x="32" y="426" font-size="11" fill="#4A5568">Polish SME Offers Gr...  6 maj</text>

  <!-- Strzałki -->
  <defs>
    <marker id="arr-blue" markerWidth="8" markerHeight="8" refX="6" refY="3" orient="auto">
      <path d="M0,0 L0,6 L8,3 z" fill="#378ADD"/>
    </marker>
    <marker id="arr-teal" markerWidth="8" markerHeight="8" refX="6" refY="3" orient="auto">
      <path d="M0,0 L0,6 L8,3 z" fill="#0F6E56"/>
    </marker>
  </defs>
  <path d="M248,113 C310,113 320,90 340,75" stroke="#378ADD" stroke-width="1.5" fill="none" stroke-dasharray="5,3" marker-end="url(#arr-blue)"/>
  <path d="M248,211 C310,211 320,330 340,340" stroke="#0F6E56" stroke-width="1.5" fill="none" stroke-dasharray="5,3" marker-end="url(#arr-teal)"/>

  <!-- Panel górny prawy — Instrukcje/Prompt -->
  <rect x="340" y="20" width="540" height="240" rx="8" fill="white" stroke="#378ADD" stroke-width="1.5"/>
  <rect x="340" y="20" width="540" height="36" rx="8" fill="#EBF4FF"/>
  <rect x="340" y="40" width="540" height="16" fill="#EBF4FF"/>
  <text x="360" y="44" font-size="12" font-weight="600" fill="#0C447C">Ustawienia projektu — Instrukcje projektu</text>
  <rect x="356" y="64" width="508" height="182" rx="6" fill="#f8f9fc" stroke="#e2e8f0" stroke-width="0.5"/>
  <text x="372" y="84" font-size="10.5" fill="#1a1a2e">Zasady przygotowywania profili EEN (jak będziemy pracować):</text>
  <text x="372" y="100" font-size="10.5" fill="#1a1a2e">Zawsze bazuję na załączonych guidelines</text>
  <text x="372" y="114" font-size="10.5" fill="#1a1a2e">Głównie Profile Drafting Guidelines v4.5 (starsze, bardzo szczegółowe)</text>
  <text x="372" y="128" font-size="10.5" fill="#1a1a2e">Partnering Profile Quality Guidelines v1.2 (2024) – najnowsze</text>
  <line x1="372" y1="136" x2="848" y2="136" stroke="#e2e8f0" stroke-width="0.5"/>
  <text x="372" y="152" font-size="10.5" fill="#1a1a2e">Typ profilu: BO / BR / TO / TR / RDR — Ty decydujesz</text>
  <text x="372" y="166" font-size="10.5" fill="#1a1a2e">Pełna anonimowość · Trzecia osoba · Brak marketingowego tonu</text>
  <text x="372" y="180" font-size="10.5" fill="#1a1a2e">Spójność między polami (Title ↔ Summary ↔ Description ↔ Partner Sought)</text>
  <text x="372" y="194" font-size="10.5" fill="#1a1a2e">Silny nacisk na Advantages and Innovations oraz Technical specification</text>
  <text x="372" y="208" font-size="10.5" fill="#1a1a2e">Dostosowanie do pól wyboru (dropdown) w systemie</text>
  <text x="372" y="234" font-size="10" fill="#4A5568" font-style="italic">Market Keywords → Appendix A · Technology Keywords → Appendix B (Merlin Client User Guide)</text>

  <!-- Panel dolny prawy — Źródła/Guidelines -->
  <rect x="340" y="330" width="540" height="210" rx="8" fill="white" stroke="#0F6E56" stroke-width="1.5"/>
  <rect x="340" y="330" width="540" height="36" rx="8" fill="#E1F5EE"/>
  <rect x="340" y="350" width="540" height="16" fill="#E1F5EE"/>
  <text x="360" y="354" font-size="12" font-weight="600" fill="#085041">Pliki osobiste — Źródła / Guidelines</text>
  <text x="360" y="388" font-size="11" fill="#4A5568">Pliki przesłane w celu dostarczenia kontekstu dla tego projektu</text>
  <rect x="356" y="396" width="350" height="28" rx="6" fill="#f8f9fc" stroke="#e2e8f0" stroke-width="0.5"/>
  <text x="372" y="415" font-size="11" fill="#888">Szukaj plików</text>
  <rect x="718" y="396" width="80" height="28" rx="6" fill="#f8f9fc" stroke="#e2e8f0" stroke-width="0.5"/>
  <text x="736" y="415" font-size="11" fill="#4A5568">+ Załącz</text>
  <line x1="356" y1="436" x2="848" y2="436" stroke="#e2e8f0" stroke-width="0.5"/>
  <rect x="360" y="444" width="28" height="34" rx="4" fill="#EBF4FF" stroke="#B5D4F4" stroke-width="0.5"/>
  <text x="364" y="466" font-size="9" font-weight="600" fill="#0C447C">PDF</text>
  <text x="396" y="466" font-size="11" fill="#1a1a2e">Partnering Profile Quality Guidelines v1.2.pdf</text>
  <line x1="356" y1="486" x2="848" y2="486" stroke="#e2e8f0" stroke-width="0.5"/>
  <text x="360" y="506" font-size="10.5" fill="#4A5568">Tu wgrywamy guidelines — stają się trwałym kontekstem projektu</text>
  <text x="360" y="520" font-size="10.5" fill="#4A5568">i są dostępne w każdej rozmowie bez ponownego załączania pliku.</text>
</svg>
